<svg version="1.1" id="Layer_1" xmlns="http://www.w3.org/2000/svg" xmlns:xlink="http://www.w3.org/1999/xlink" x="0px" y="0px"
	 width="1024" height="1024" viewBox="0 0 1024 1024" preserveAspectRatio="xMidYMid meet" enable-background="new 0 0 1024 1024" xml:space="preserve">
<rect width="1024" height="1024" fill="#c6f000"/>
<g transform="translate(512 512) scale(1.1) translate(-512 -512)">
<path fill="#000000" opacity="1.000000" stroke="none" 
	d="
M361.180664,753.758179 
	C346.032532,732.124634 347.014557,709.359680 364.190399,688.156555 
	C370.715515,680.101562 375.343231,671.547241 374.646271,660.914917 
	C374.099884,652.579590 370.939056,645.078979 366.444763,638.130920 
	C358.724152,626.194946 349.854889,615.157349 339.699646,605.220825 
	C324.306702,590.159363 306.803284,587.832703 288.195953,598.564819 
	C275.036133,606.155029 261.394745,610.364868 246.179672,606.562439 
	C210.074142,597.539307 196.138916,554.346680 219.798523,525.365479 
	C230.879395,511.792267 245.347626,505.856140 262.362640,506.101837 
	C283.152344,506.401947 295.676575,495.507233 302.876282,477.287079 
	C309.310211,461.004822 315.006531,444.443451 314.931427,426.592041 
	C314.880737,414.544281 310.828430,404.111481 301.890533,395.766052 
	C298.021637,392.153564 293.240326,390.205597 288.503387,388.140106 
	C251.908539,372.183380 245.097305,326.692108 275.427704,300.851135 
	C295.976318,283.344055 329.736481,286.174408 348.254242,306.931274 
	C351.576233,310.654938 354.430359,314.815308 358.359711,317.976868 
	C368.324036,325.994232 379.829376,327.940704 391.866089,325.074707 
	C411.352539,320.434937 429.359680,312.081818 445.455231,300.174225 
	C459.884460,289.499420 467.075165,275.566895 461.935669,257.095612 
	C461.004120,253.747604 460.650299,250.227692 460.166962,246.767975 
	C457.197174,225.511261 469.433472,202.822052 488.864258,193.480530 
	C509.086456,183.758499 532.609497,187.757477 547.567749,204.205704 
	C558.997375,216.773865 563.323608,231.746170 559.769775,248.632996 
	C559.084473,251.889404 558.252502,255.127762 557.268005,258.306244 
	C552.681091,273.113922 557.095337,285.741028 568.367249,295.186005 
	C585.959167,309.926697 606.494507,319.800293 628.731140,325.169220 
	C642.948486,328.601929 655.911865,324.312439 665.591125,312.721771 
	C673.105652,303.723267 681.657654,296.261902 692.949158,292.506531 
	C724.408875,282.043488 756.423889,298.724365 761.801453,332.089172 
	C765.877930,357.381348 752.442871,378.950348 730.231384,388.152863 
	C715.369995,394.310150 705.298767,403.979950 702.679504,420.182648 
	C701.424316,427.947205 701.866211,435.803253 703.301575,443.560638 
	C705.885071,457.523132 709.288635,471.275391 716.267883,483.766571 
	C724.288208,498.121002 736.410889,505.952576 753.252197,505.951447 
	C771.041626,505.950287 786.963196,510.764587 798.237793,525.545715 
	C809.803833,540.708923 812.806458,557.706909 805.945251,575.527954 
	C799.090881,593.331116 785.715271,603.964661 766.733643,607.339722 
	C752.432434,609.882446 739.709595,605.793457 727.768616,598.360779 
	C716.305237,591.225464 704.397278,590.207214 691.975342,595.448914 
	C686.846130,597.613281 682.251831,600.782043 678.395142,604.673950 
	C666.754700,616.420349 655.958496,628.957214 648.331543,643.729858 
	C640.608337,658.688904 641.151062,673.228760 652.690430,686.428650 
	C662.359680,697.489380 667.917664,709.943909 667.454651,725.055115 
	C666.757141,747.816040 647.415649,770.043091 624.810791,773.267578 
	C595.561951,777.439697 570.932434,758.959045 566.588318,729.580566 
	C563.664856,709.809631 553.479736,698.762695 533.856201,694.197266 
	C517.536804,690.400635 501.170959,690.302185 484.878326,694.216553 
	C466.432587,698.648193 454.947815,709.468872 451.814545,728.977295 
	C447.712067,754.519897 430.049561,771.366333 405.061584,773.596619 
	C387.181915,775.192505 372.565735,768.134216 361.180664,753.758179 
M464.898834,508.317169 
	C472.865479,491.412598 472.477814,474.164368 466.741913,456.811401 
	C464.505402,450.045227 459.923676,444.986145 453.434082,441.960938 
	C439.042419,435.251923 423.079895,443.751953 418.485229,460.716919 
	C414.743073,474.534210 415.042816,488.395844 419.471619,502.033569 
	C422.857056,512.458557 429.507355,519.812256 440.771088,521.403259 
	C451.418732,522.907288 458.908630,517.495544 464.898834,508.317169 
M594.289368,509.740356 
	C603.585388,491.718109 603.459961,473.186279 596.131470,454.795349 
	C592.168701,444.850769 584.038330,439.609406 572.927673,439.912537 
	C562.484924,440.197388 554.039429,446.636475 550.150940,458.479187 
	C545.184998,473.602722 545.379456,488.932922 550.719788,503.977905 
	C557.745239,523.770325 581.650757,528.151855 594.289368,509.740356 
z"/>
</g>
</svg>
